<?xml version="1.0" encoding="UTF-8"?>
<!-- Created with Inkscape (http://www.inkscape.org/) -->
<svg width="210mm" height="297mm" version="1.1" viewBox="0 0 210 297" xmlns="http://www.w3.org/2000/svg">
 <path d="m16 30c-0.86-0.056-1.7 0.077-2.6 0.42-4.7 1.8-7.5 8.9-6.2 16l11 61c3.2 30 16 87 16 87 5.3 8.2 148 12 153-1.1 4.2-11 20-96 16-105-2.2-5.3-127-7.1-170-1.7l-8.3-47c-1-5.6-4.3-9.4-8-9.7zm41 192a13 22 0 0 0-13 22 13 22 0 0 0 13 22 13 22 0 0 0 13-22 13 22 0 0 0-13-22zm106 0a13 22 0 0 0-13 22 13 22 0 0 0 13 22 13 22 0 0 0 13-22 13 22 0 0 0-13-22z" fill="#fff"/>
</svg>
