<?xml version="1.0" encoding="UTF-8"?>
<svg xmlns="http://www.w3.org/2000/svg" xmlns:xlink="http://www.w3.org/1999/xlink" width="354px" height="500px" viewBox="0 0 354 500" version="1.1">
<g id="surface1">
<path style=" stroke:none;fill-rule:nonzero;fill:rgb(97.647059%,97.647059%,97.647059%);fill-opacity:1;" d="M 169.863281 21.214844 C 151.929688 21.214844 137.492188 34.800781 137.492188 51.675781 L 137.492188 74.921875 C 149.003906 65.085938 164.863281 59.53125 181.433594 59.53125 C 199.101562 59.53125 215.910156 65.851562 227.507812 76.851562 L 227.507812 51.675781 C 227.507812 34.800781 213.074219 21.214844 195.140625 21.214844 Z M 182.5 81.714844 C 96.09375 81.71875 26.042969 155.753906 26.046875 247.078125 C 26.046875 338.402344 96.09375 412.433594 182.5 412.4375 C 268.910156 412.4375 338.960938 338.40625 338.960938 247.078125 C 338.964844 155.75 268.914062 81.714844 182.5 81.714844 Z M 183.574219 126.082031 C 250.457031 126.078125 304.671875 180.703125 304.671875 248.085938 C 304.671875 315.46875 250.457031 370.089844 183.574219 370.089844 C 116.695312 370.089844 62.480469 315.464844 62.480469 248.085938 C 62.480469 180.703125 116.695312 126.082031 183.574219 126.082031 Z M 174.902344 153.304688 C 169.019531 153.304688 164.285156 157.757812 164.285156 163.289062 L 164.285156 213.894531 C 164.285156 219.429688 169.019531 223.882812 174.902344 223.882812 L 185.824219 223.882812 C 191.703125 223.882812 196.4375 219.429688 196.4375 213.894531 L 196.4375 163.289062 C 196.4375 157.757812 191.703125 153.304688 185.824219 153.304688 Z M 177.148438 226.90625 C 158.800781 226.90625 143.925781 241.355469 143.925781 259.175781 C 143.929688 276.996094 158.800781 291.4375 177.148438 291.4375 C 195.496094 291.4375 210.367188 276.996094 210.367188 259.175781 C 210.371094 241.355469 195.496094 226.90625 177.148438 226.90625 Z M 223.449219 241.027344 C 218.574219 241.027344 214.652344 244.71875 214.652344 249.300781 L 214.652344 263 C 214.652344 267.585938 218.574219 271.273438 223.449219 271.273438 L 268.011719 271.273438 C 272.886719 271.273438 276.808594 267.585938 276.808594 263 L 276.808594 249.300781 C 276.808594 244.71875 272.886719 241.027344 268.011719 241.027344 Z M 130.933594 421.148438 C 129.027344 421.148438 128.074219 422.0625 128.074219 423.894531 C 128.074219 426.785156 128.027344 430.097656 127.929688 433.832031 C 127.832031 437.546875 127.785156 440.847656 127.785156 443.738281 C 127.785156 445.953125 127.675781 449.285156 127.460938 453.730469 C 127.25 458.160156 127.140625 461.480469 127.140625 463.695312 C 127.140625 465.5625 128.09375 466.496094 130 466.496094 C 131.714844 466.496094 132.664062 465.582031 132.859375 463.75 C 133.015625 460.949219 133.09375 458.828125 133.09375 457.382812 L 133.53125 443.738281 C 133.53125 440.847656 133.578125 437.546875 133.675781 433.832031 C 133.773438 430.097656 133.824219 426.785156 133.824219 423.894531 C 133.824219 422.0625 132.859375 421.148438 130.933594 421.148438 Z M 233.894531 421.148438 C 231.988281 421.148438 231.035156 422.0625 231.035156 423.894531 C 231.035156 426.785156 230.988281 430.097656 230.886719 433.832031 C 230.789062 437.546875 230.742188 440.847656 230.742188 443.738281 C 230.742188 445.953125 230.632812 449.285156 230.421875 453.730469 C 230.207031 458.160156 230.101562 461.480469 230.101562 463.695312 C 230.101562 465.5625 231.054688 466.496094 232.960938 466.496094 C 234.671875 466.496094 235.625 465.582031 235.820312 463.75 C 235.972656 460.949219 236.050781 458.828125 236.050781 457.382812 L 236.488281 443.738281 C 236.488281 440.847656 236.535156 437.546875 236.636719 433.832031 C 236.734375 430.097656 236.78125 426.785156 236.78125 423.894531 C 236.78125 422.0625 235.820312 421.148438 233.894531 421.148438 Z M 311.789062 421.285156 C 310.953125 421.285156 310.265625 421.542969 309.71875 422.054688 C 309.195312 422.566406 308.929688 423.234375 308.929688 424.058594 C 308.929688 424.882812 308.96875 425.851562 309.046875 426.96875 C 309.144531 428.082031 309.195312 429.054688 309.195312 429.878906 C 309.195312 432.621094 309.148438 435.789062 309.046875 439.375 C 308.972656 442.945312 308.929688 446.117188 308.929688 448.902344 C 308.929688 450.417969 308.816406 452.699219 308.582031 455.734375 C 308.367188 458.753906 308.261719 461.023438 308.261719 462.542969 C 308.261719 465.03125 309.242188 466.277344 311.207031 466.277344 C 312.042969 466.277344 312.722656 466.019531 313.25 465.507812 C 313.792969 464.996094 314.066406 464.328125 314.066406 463.503906 C 314.066406 460.816406 314.171875 458.050781 314.386719 455.214844 C 316.761719 453.695312 318.511719 452.515625 319.640625 451.671875 L 324.804688 458.289062 C 326.84375 460.816406 328.371094 463 329.382812 464.847656 C 329.964844 465.910156 330.792969 466.441406 331.863281 466.441406 C 332.660156 466.441406 333.359375 466.175781 333.964844 465.644531 C 334.585938 465.117188 334.898438 464.484375 334.898438 463.753906 C 334.898438 462.597656 333.410156 460.109375 330.433594 456.285156 L 324.074219 448.132812 C 327.574219 445.113281 330.519531 442.285156 332.914062 439.648438 C 333.476562 439.046875 333.757812 438.433594 333.757812 437.8125 C 333.757812 437.0625 333.449219 436.402344 332.824219 435.835938 C 332.222656 435.265625 331.542969 434.984375 330.785156 434.984375 C 330.042969 434.984375 329.355469 435.292969 328.710938 435.917969 L 322.292969 442.148438 C 319.84375 444.417969 317.292969 446.503906 314.648438 448.40625 C 314.613281 445.222656 314.640625 442.039062 314.734375 438.855469 L 314.9375 430.015625 C 314.9375 429.171875 314.890625 428.183594 314.792969 427.050781 C 314.695312 425.898438 314.648438 424.898438 314.648438 424.058594 C 314.648438 423.234375 314.375 422.566406 313.828125 422.054688 C 313.304688 421.542969 312.625 421.285156 311.789062 421.285156 Z M 221.113281 423.507812 C 220.023438 423.507812 219.140625 423.976562 218.460938 424.910156 C 217.875 424.726562 217.203125 424.597656 216.445312 424.523438 C 215.6875 424.433594 214.832031 424.386719 213.878906 424.386719 C 209.191406 424.386719 204.542969 427.105469 199.933594 432.539062 C 194.410156 439.054688 191.648438 445.414062 191.648438 451.617188 C 191.648438 455.460938 192.988281 458.792969 195.671875 461.609375 C 198.457031 464.519531 201.859375 465.976562 205.886719 465.976562 C 211.136719 465.976562 216.328125 463.835938 221.464844 459.550781 C 222.203125 458.929688 222.574219 458.207031 222.574219 457.382812 C 222.574219 456.652344 222.292969 455.992188 221.726562 455.40625 C 221.164062 454.804688 220.464844 454.5 219.628906 454.5 C 219.0625 454.5 218.226562 454.886719 217.117188 455.652344 C 214.785156 457.265625 213.054688 458.34375 211.925781 458.894531 C 209.902344 459.863281 207.890625 460.347656 205.886719 460.347656 C 203.550781 460.347656 201.558594 459.46875 199.90625 457.710938 C 198.289062 456.011719 197.484375 453.980469 197.484375 451.617188 C 197.484375 446.734375 199.816406 441.5625 204.484375 436.109375 C 207.929688 432.046875 211.058594 430.015625 213.878906 430.015625 C 215.496094 430.015625 216.503906 430.117188 216.914062 430.316406 C 217.378906 430.574219 217.886719 431.285156 218.429688 432.457031 C 219.054688 433.832031 219.988281 434.515625 221.230469 434.515625 C 222.203125 434.515625 222.953125 434.160156 223.476562 433.445312 C 223.90625 432.878906 224.121094 432.21875 224.121094 431.46875 C 224.121094 429.308594 223.964844 427.488281 223.652344 426.007812 C 223.304688 424.339844 222.457031 423.507812 221.113281 423.507812 Z M 114.945312 424.195312 C 114.011719 424.195312 113.207031 424.507812 112.527344 425.128906 C 111.84375 425.75 111.503906 426.5 111.503906 427.378906 C 111.503906 428.257812 111.84375 429.007812 112.527344 429.628906 C 113.207031 430.253906 114.011719 430.5625 114.945312 430.5625 C 115.878906 430.5625 116.679688 430.253906 117.339844 429.628906 C 118.019531 429.007812 118.359375 428.257812 118.359375 427.378906 C 118.359375 426.5 118.019531 425.75 117.339844 425.128906 C 116.675781 424.507812 115.878906 424.195312 114.945312 424.195312 Z M 42.710938 425.046875 C 38.703125 425.046875 34.820312 426.316406 31.070312 428.859375 C 27.140625 431.550781 25.175781 434.527344 25.175781 437.78125 C 25.175781 440.546875 26.554688 442.667969 29.316406 444.152344 C 31.476562 445.304688 34.09375 445.9375 37.167969 446.046875 C 40.628906 446.136719 43.535156 446.757812 45.890625 447.914062 C 48.671875 449.25 50.0625 451.070312 50.0625 453.375 C 50.0625 456.175781 48.410156 458.359375 45.101562 459.933594 C 42.515625 461.160156 39.714844 461.773438 36.699219 461.773438 C 33.546875 461.773438 31.144531 461.261719 29.492188 460.238281 C 28.714844 459.742188 27.832031 458.800781 26.839844 457.410156 C 26.117188 456.386719 25.28125 455.871094 24.328125 455.871094 C 23.492188 455.871094 22.78125 456.121094 22.199219 456.613281 C 21.636719 457.089844 21.363281 457.710938 21.382812 458.480469 C 21.4375 461.226562 23.277344 463.386719 26.898438 464.960938 C 29.851562 466.238281 33.109375 466.878906 36.671875 466.878906 C 41.570312 466.878906 45.878906 465.753906 49.59375 463.503906 C 53.875 460.90625 56.011719 457.429688 56.011719 453.074219 C 56.011719 450.015625 54.867188 447.425781 52.570312 445.304688 C 50.0625 442.980469 46.578125 441.664062 42.125 441.351562 C 39.054688 441.148438 36.980469 440.929688 35.910156 440.691406 C 33.03125 440.070312 31.59375 439 31.59375 437.480469 C 31.59375 435.46875 32.683594 433.757812 34.863281 432.347656 C 36.980469 430.976562 39.558594 430.269531 42.59375 430.234375 C 43.664062 430.214844 45.167969 430.40625 47.113281 430.808594 C 49.058594 431.195312 50.421875 431.386719 51.199219 431.386719 C 52.949219 431.386719 53.824219 430.582031 53.824219 428.96875 C 53.824219 427.746094 52.25 426.738281 49.097656 425.953125 C 46.726562 425.347656 44.597656 425.046875 42.710938 425.046875 Z M 65.496094 434.847656 C 63.511719 434.847656 62.519531 436.921875 62.519531 441.078125 C 62.519531 442.066406 62.605469 443.53125 62.78125 445.46875 C 62.976562 447.410156 63.074219 448.863281 63.074219 449.832031 C 63.074219 450.933594 62.964844 452.570312 62.753906 454.746094 C 62.539062 456.925781 62.433594 458.5625 62.433594 459.660156 C 62.433594 464.363281 63.53125 466.714844 65.726562 466.714844 C 66.527344 466.714844 67.214844 466.460938 67.800781 465.949219 C 68.402344 465.433594 68.703125 464.804688 68.703125 464.054688 C 68.703125 463.613281 68.605469 462.902344 68.414062 461.914062 C 68.238281 460.925781 68.148438 460.15625 68.148438 459.605469 C 68.148438 458.582031 68.257812 457 68.472656 454.855469 C 68.683594 452.714844 68.792969 451.097656 68.792969 450 C 69.472656 449.285156 69.96875 448.707031 70.28125 448.269531 L 73.722656 444.644531 C 75.121094 443.328125 76.503906 442.375 77.867188 441.789062 C 78.449219 442.871094 78.738281 444.378906 78.738281 446.320312 C 78.738281 448.535156 78.972656 451.808594 79.441406 456.148438 C 79.925781 460.464844 80.167969 463.734375 80.167969 465.949219 C 80.167969 466.753906 80.433594 467.410156 80.957031 467.925781 C 81.503906 468.457031 82.191406 468.71875 83.027344 468.71875 C 83.863281 468.71875 84.546875 468.453125 85.070312 467.925781 C 85.617188 467.410156 85.886719 466.753906 85.886719 465.949219 C 85.886719 464.0625 85.703125 461.675781 85.332031 458.78125 L 84.457031 451.453125 C 84.339844 449.734375 84.292969 448.011719 84.3125 446.292969 C 84.894531 445.652344 86.121094 444.800781 87.988281 443.738281 C 89.953125 442.585938 91.292969 442.011719 92.015625 442.011719 C 92.792969 442.011719 93.511719 442.832031 94.171875 444.480469 C 94.640625 445.6875 94.96875 446.925781 95.164062 448.1875 L 96.15625 456.695312 C 96.507812 460.355469 96.855469 463.191406 97.207031 465.207031 C 97.480469 466.796875 98.414062 467.59375 100.007812 467.59375 C 100.84375 467.59375 101.554688 467.339844 102.136719 466.824219 C 102.722656 466.3125 102.984375 465.691406 102.925781 464.960938 C 102.070312 457.621094 101.371094 452.378906 100.824219 449.230469 C 100.261719 444.746094 99.863281 442.175781 99.628906 441.515625 C 98.441406 438.222656 96.226562 436.574219 92.976562 436.574219 C 91.070312 436.574219 89.378906 436.914062 87.898438 437.589844 C 86.421875 438.25 85.148438 439.246094 84.078125 440.582031 C 82.929688 437.726562 80.832031 436.300781 77.777344 436.300781 C 76.394531 436.300781 74.722656 437.097656 72.757812 438.6875 C 70.792969 440.261719 69.304688 442.027344 68.296875 443.988281 L 68.238281 441.105469 C 68.238281 440.71875 68.285156 440.164062 68.382812 439.429688 C 68.480469 438.699219 68.53125 438.160156 68.53125 437.8125 C 68.53125 437.078125 68.210938 436.402344 67.566406 435.78125 C 66.945312 435.15625 66.253906 434.847656 65.496094 434.847656 Z M 289.675781 436.136719 C 286.019531 436.136719 282.734375 438.332031 279.816406 442.722656 C 277.1875 446.675781 275.875 450.511719 275.875 454.226562 C 275.875 458.125 277.277344 461.261719 280.078125 463.640625 C 282.742188 465.910156 286.066406 467.046875 290.054688 467.046875 C 291.785156 467.046875 293.964844 466.496094 296.589844 465.398438 C 299.585938 464.152344 301.082031 462.863281 301.082031 461.527344 C 301.082031 460.832031 300.820312 460.21875 300.296875 459.6875 C 299.769531 459.140625 299.148438 458.867188 298.429688 458.867188 C 298.175781 458.867188 297.757812 459.011719 297.171875 459.304688 L 293.789062 461.007812 C 292.46875 461.59375 291.222656 461.882812 290.054688 461.882812 C 287.488281 461.882812 285.386719 461.234375 283.753906 459.933594 C 282.003906 458.542969 281.128906 456.640625 281.128906 454.226562 C 281.128906 451.992188 282.011719 449.347656 283.78125 446.292969 C 285.726562 442.960938 287.691406 441.296875 289.675781 441.296875 C 292.28125 441.296875 294.160156 441.726562 295.304688 442.585938 C 295.695312 442.898438 296.09375 443.21875 296.503906 443.546875 C 296.929688 443.859375 297.425781 444.015625 297.992188 444.015625 C 298.710938 444.015625 299.3125 443.75 299.800781 443.21875 C 300.285156 442.667969 300.527344 442.046875 300.527344 441.351562 C 300.527344 439.796875 299.042969 438.476562 296.066406 437.398438 C 293.710938 436.554688 291.582031 436.136719 289.675781 436.136719 Z M 155.324219 436.628906 C 150.871094 436.628906 147.3125 438.386719 144.648438 441.898438 C 142.195312 445.121094 140.972656 449.109375 140.972656 453.867188 C 140.972656 457.984375 142.457031 461.1875 145.433594 463.476562 C 148.15625 465.542969 151.71875 466.578125 156.113281 466.578125 C 158.933594 466.578125 161.832031 465.957031 164.808594 464.710938 C 168.289062 463.246094 170.027344 461.5 170.027344 459.46875 C 170.027344 458.828125 169.757812 458.269531 169.210938 457.792969 C 168.6875 457.300781 168.085938 457.054688 167.402344 457.054688 C 166.644531 457.054688 165.933594 457.546875 165.273438 458.535156 C 164.613281 459.503906 163.132812 460.292969 160.839844 460.898438 C 159.03125 461.371094 157.457031 461.609375 156.113281 461.609375 C 153.953125 461.609375 152.058594 461.226562 150.425781 460.457031 C 148.808594 459.6875 147.457031 458.542969 146.367188 457.027344 L 157.511719 452.058594 C 160.664062 450.667969 162.726562 449.640625 163.699219 448.984375 C 165.894531 447.480469 166.996094 445.816406 166.996094 443.988281 C 166.996094 441.371094 165.742188 439.429688 163.230469 438.167969 C 161.191406 437.140625 158.554688 436.628906 155.324219 436.628906 Z M 258.515625 436.847656 C 253.65625 436.847656 249.863281 438.707031 247.140625 442.421875 C 244.804688 445.570312 243.695312 449.210938 243.8125 453.347656 C 243.949219 457.609375 245.328125 461.003906 247.957031 463.53125 C 250.308594 465.800781 253.121094 466.933594 256.386719 466.933594 C 260.492188 466.933594 263.789062 465.304688 266.277344 462.050781 C 268.476562 459.175781 269.605469 455.707031 269.660156 451.644531 C 269.71875 447.839844 268.953125 444.582031 267.359375 441.871094 C 265.355469 438.523438 262.40625 436.847656 258.515625 436.847656 Z M 113.984375 437.207031 C 113.148438 437.207031 112.457031 437.460938 111.914062 437.972656 C 111.386719 438.488281 111.125 439.15625 111.125 439.980469 C 111.125 441.699219 111.027344 443.847656 110.832031 446.429688 C 110.640625 448.992188 110.542969 451.132812 110.542969 452.851562 C 110.542969 453.949219 110.570312 455.597656 110.625 457.792969 C 110.703125 459.972656 110.742188 461.609375 110.742188 462.707031 C 110.742188 463.511719 111.003906 464.171875 111.53125 464.683594 C 112.074219 465.195312 112.765625 465.453125 113.601562 465.453125 C 114.457031 465.453125 115.148438 465.195312 115.671875 464.683594 C 116.199219 464.171875 116.460938 463.511719 116.460938 462.707031 C 116.460938 461.609375 116.421875 459.972656 116.34375 457.792969 C 116.289062 455.597656 116.261719 453.949219 116.261719 452.851562 C 116.261719 451.132812 116.359375 448.992188 116.550781 446.429688 C 116.746094 443.847656 116.84375 441.699219 116.84375 439.980469 C 116.84375 439.15625 116.570312 438.488281 116.027344 437.972656 C 115.5 437.460938 114.820312 437.207031 113.984375 437.207031 Z M 155.324219 441.570312 C 158.339844 441.570312 160.683594 442.304688 162.355469 443.765625 C 160.859375 444.957031 158.347656 446.355469 154.828125 447.96875 L 145.871094 451.976562 C 146.652344 448.496094 147.828125 445.898438 149.402344 444.179688 C 150.976562 442.441406 152.953125 441.570312 155.324219 441.570312 Z M 258.136719 442.421875 C 262.476562 442.4375 264.507812 445.988281 264.234375 453.070312 C 264.136719 455.6875 263.261719 457.765625 261.609375 459.304688 C 260.148438 460.695312 258.410156 461.390625 256.386719 461.390625 C 254.65625 461.390625 253.148438 460.777344 251.867188 459.550781 C 250.328125 458.066406 249.558594 456 249.558594 453.347656 C 249.558594 450.695312 250.191406 448.332031 251.457031 446.265625 C 253.050781 443.683594 255.277344 442.402344 258.136719 442.421875 Z M 258.136719 442.421875 "/>
</g>
</svg>
