<svg xmlns="http://www.w3.org/2000/svg" width="210mm" height="297mm" viewBox="0 0 210 297"><path d="M100.142 14.22c-10.638 0-19.2 8.069-19.2 18.088v13.804a36.231 29.936 0 0 1 26.061-9.14 36.231 29.936 0 0 1 27.33 10.286v-14.95c0-10.02-8.562-18.087-19.2-18.087zm7.496 35.926a92.803 98.19 0 0 0-92.801 98.192 92.803 98.19 0 0 0 92.8 98.188 92.803 98.19 0 0 0 92.805-98.188 92.803 98.19 0 0 0-92.804-98.192m.637 26.344a71.827 72.446 0 0 1 71.828 72.445 71.827 72.446 0 0 1-71.828 72.446 71.827 72.446 0 0 1-71.827-72.446 71.827 72.446 0 0 1 71.827-72.445m-5.145 16.164c-3.488 0-6.296 2.645-6.296 5.93v30.05c0 3.285 2.808 5.93 6.296 5.93h6.478c3.488 0 6.296-2.645 6.296-5.93v-30.05c0-3.285-2.808-5.93-6.296-5.93zm1.332 43.706a19.705 19.16 0 0 0-19.704 19.16 19.705 19.16 0 0 0 19.704 19.158 19.705 19.16 0 0 0 19.705-19.158 19.705 19.16 0 0 0-19.705-19.16m27.463 8.383c-2.89 0-5.217 2.192-5.217 4.915v8.134c0 2.722 2.327 4.911 5.217 4.911h26.434c2.89 0 5.217-2.189 5.217-4.911v-8.134c0-2.723-2.327-4.915-5.217-4.915zM77.051 251.7q-1.695 0-1.696 1.63 0 2.576-.086 5.9a229 229 0 0 0-.087 5.885q0 1.973-.19 5.933-.19 3.945-.19 5.917 0 1.663 1.696 1.663 1.522 0 1.695-1.63.138-2.494.139-3.782l.26-8.101q-.001-2.575.086-5.884.086-3.325.086-5.901 0-1.63-1.713-1.63m61.07 0q-1.696 0-1.696 1.63 0 2.576-.087 5.9a229 229 0 0 0-.087 5.885q0 1.973-.19 5.933-.19 3.945-.19 5.917 0 1.663 1.696 1.663 1.522 0 1.696-1.63.138-2.494.138-3.782l.26-8.101q0-2.575.086-5.884.087-3.325.087-5.901 0-1.63-1.713-1.63m46.204.082q-.744 0-1.229.456-.467.456-.467 1.19 0 .733.07 1.728.086.993.086 1.727 0 2.445-.087 5.64-.068 3.18-.069 5.656 0 1.353-.207 4.059-.19 2.69-.19 4.042 0 2.217 1.747 2.217.744 0 1.211-.456.486-.455.485-1.19 0-2.395.19-4.923 2.112-1.352 3.115-2.102l3.063 3.928q1.817 2.25 2.717 3.896.519.945 1.47.945.711 0 1.247-.472.553-.473.553-1.125 0-1.028-2.647-4.434l-3.773-4.84q3.115-2.69 5.244-5.038.502-.537.501-1.092 0-.667-.553-1.173-.537-.505-1.212-.505-.657 0-1.228.554l-3.807 3.7a48 48 0 0 1-4.534 3.716q-.034-2.835.05-5.672l.121-5.249q0-.75-.086-1.76a22 22 0 0 1-.087-1.777q0-.734-.485-1.19-.467-.456-1.21-.456zm-53.784 1.32q-.969 0-1.575.831a6 6 0 0 0-1.194-.228 13 13 0 0 0-1.523-.081q-4.17 0-8.271 4.84-4.915 5.804-4.915 11.33 0 3.422 2.388 5.932 2.475 2.592 6.057 2.592 4.672 0 9.24-3.814.658-.555.658-1.288 0-.653-.502-1.173a1.64 1.64 0 0 0-1.245-.538q-.502 0-1.489.684-2.076 1.435-3.08 1.924-1.8.864-3.582.864-2.077 0-3.548-1.565-1.436-1.515-1.436-3.619 0-4.352 4.153-9.21 3.064-3.618 5.572-3.618 1.437 0 1.8.18.415.227.9 1.27.554 1.224 1.661 1.223.865 0 1.333-.635.38-.506.38-1.174 0-1.923-.276-3.244-.312-1.483-1.506-1.483m-62.973.407q-.831 0-1.436.554-.606.554-.606 1.337t.606 1.337 1.436.554 1.419-.554q.606-.554.606-1.337t-.606-1.337a2 2 0 0 0-1.419-.554m-42.847.505q-3.565 0-6.905 2.266-3.495 2.396-3.496 5.298 0 2.46 2.458 3.781 1.92 1.027 4.655 1.125 3.08.082 5.174 1.108 2.475 1.19 2.475 3.244 0 2.494-2.942 3.896-2.302 1.092-4.984 1.092-2.804 0-4.274-.913-.693-.44-1.575-1.679-.64-.913-1.488-.913-.745 0-1.264.44-.502.424-.484 1.109.051 2.445 3.27 3.847 2.63 1.14 5.798 1.14 4.36 0 7.666-2.004 3.807-2.315 3.807-6.194 0-2.723-2.042-4.613-2.232-2.07-6.195-2.347-2.735-.18-3.686-.392-2.561-.554-2.561-1.907 0-1.793 1.938-3.048 1.886-1.222 4.586-1.255.951-.016 2.682.342 1.73.343 2.423.343 1.557 0 1.557-1.435 0-1.092-2.803-1.793-2.112-.537-3.79-.538zm13.515 5.82q-1.765 0-1.765 3.7-.002.88.156 2.608.173 1.727.173 2.591 0 .978-.19 2.918t-.191 2.918q0 4.19 1.955 4.189.71 0 1.23-.456.535-.458.535-1.125 0-.39-.173-1.272-.155-.88-.155-1.369 0-.912.19-2.82t.19-2.885q.606-.635.883-1.027l2.042-2.151q1.246-1.175 2.457-1.695.52.96.52 2.689 0 1.972.415 5.835.432 3.847.432 5.82 0 .717.467 1.173.485.474 1.229.473.744 0 1.211-.473.485-.456.485-1.173 0-1.68-.33-4.255l-.518-4.352a39 39 0 0 1-.087-3.064q.52-.57 2.18-1.516 1.749-1.027 2.389-1.027.692 0 1.28 1.467.415 1.075.589 2.2l.588 5.053q.312 3.26.623 5.053.242 1.419 1.661 1.419.745 0 1.264-.457.518-.456.467-1.108-.761-6.537-1.246-9.34-.501-3.994-.71-4.58-1.055-2.934-3.945-2.934-1.695 0-3.011.603a6 6 0 0 0-2.267 1.776q-1.02-2.542-3.738-2.542-1.23 0-2.976 1.418-1.748 1.401-2.648 3.146l-.034-1.712q0-.342.087-.994.086-.652.086-.962 0-.653-.57-1.206-.555-.554-1.23-.554zm132.972.766q-3.254 0-5.85 3.912-2.336 3.52-2.336 6.83 0 3.471 2.492 5.59 2.37 2.022 5.919 2.021 1.54 0 3.876-.977 2.665-1.11 2.665-2.299 0-.619-.467-1.092-.467-.489-1.108-.489-.225 0-.744.26l-2.007 1.012q-1.177.521-2.215.521-2.285 0-3.738-1.157-1.558-1.239-1.558-3.39 0-1.99 1.575-4.711 1.73-2.967 3.496-2.967 2.319 0 3.34.766l.71.57q.38.278.882.278.64 0 1.073-.473.432-.489.432-1.108 0-1.385-2.647-2.348-2.095-.75-3.79-.75m-79.69.293q-3.963 0-6.333 3.13-2.18 2.868-2.18 7.106 0 3.668 2.647 5.705 2.422 1.842 6.333 1.842 2.51 0 5.157-1.108 3.098-1.305 3.098-3.113 0-.571-.485-.995a1.52 1.52 0 0 0-1.072-.44q-.675 0-1.264.88-.588.864-2.63 1.402-1.609.424-2.804.424-1.92 0-3.374-.685a6.2 6.2 0 0 1-2.405-2.037l6.61-2.95q2.804-1.24 3.669-1.826 1.955-1.337 1.955-2.967 0-2.33-2.232-3.455-1.817-.913-4.69-.913zm61.208.13q-4.326 0-6.749 3.31-2.076 2.802-1.973 6.487.121 3.798 2.458 6.047 2.094 2.02 5 2.021 3.652 0 5.867-2.901 1.956-2.56 2.007-6.178.052-3.39-1.367-5.803-1.782-2.982-5.243-2.983m-85.729.212q-.744 0-1.229.457-.467.456-.467 1.19 0 1.531-.173 3.83-.173 2.282-.173 3.814 0 .978.05 2.934.069 1.94.07 2.918 0 .718.467 1.173.484.457 1.228.457.761 0 1.229-.457.467-.456.467-1.173.001-.978-.07-2.918-.05-1.956-.05-2.934 0-1.532.174-3.814.173-2.299.173-3.83 0-.735-.485-1.19-.467-.457-1.211-.457m24.521 2.592q2.683 0 4.17 1.304-1.332 1.06-4.464 2.494l-5.313 2.38q.693-3.097 2.094-4.63 1.403-1.548 3.513-1.548m60.983.505q3.859.016 3.617 6.325-.087 2.33-1.558 3.7-1.297 1.238-3.097 1.238-1.54 0-2.683-1.092-1.366-1.32-1.367-3.683 0-2.364 1.125-4.206 1.419-2.298 3.963-2.282" style="fill:#ff7f2a;stroke-width:1.43317"/></svg>