<svg xmlns="http://www.w3.org/2000/svg" width="210mm" height="297mm" viewBox="0 0 210 297"><path d="M100.754 12.597c-10.638 0-19.2 8.068-19.2 18.088v13.803a36.231 29.936 0 0 1 26.061-9.138 36.231 29.936 0 0 1 27.33 10.285v-14.95c0-10.02-8.562-18.088-19.2-18.088zm7.496 35.926a92.803 98.19 0 0 0-92.801 98.192 92.803 98.19 0 0 0 92.801 98.188 92.803 98.19 0 0 0 92.804-98.188 92.803 98.19 0 0 0-92.804-98.192m.637 26.343a71.827 72.446 0 0 1 71.828 72.446 71.827 72.446 0 0 1-71.828 72.446 71.827 72.446 0 0 1-71.827-72.446 71.827 72.446 0 0 1 71.827-72.446m-5.145 16.165c-3.488 0-6.296 2.644-6.296 5.93v30.05c0 3.285 2.808 5.93 6.296 5.93h6.478c3.488 0 6.296-2.645 6.296-5.93V96.96c0-3.286-2.808-5.93-6.296-5.93zm1.332 43.705a19.705 19.16 0 0 0-19.704 19.161 19.705 19.16 0 0 0 19.704 19.158 19.705 19.16 0 0 0 19.705-19.158 19.705 19.16 0 0 0-19.705-19.16m27.463 8.384c-2.89 0-5.217 2.192-5.217 4.915v8.133c0 2.723 2.327 4.912 5.217 4.912h26.434c2.89 0 5.217-2.19 5.217-4.912v-8.133c0-2.723-2.327-4.915-5.217-4.915zM77.663 250.076q-1.695 0-1.696 1.63 0 2.576-.086 5.9a229 229 0 0 0-.086 5.885q0 1.972-.191 5.933-.19 3.945-.19 5.917 0 1.663 1.696 1.663 1.522 0 1.695-1.63.138-2.494.139-3.782l.26-8.101q-.001-2.576.086-5.885.086-3.324.086-5.9 0-1.63-1.713-1.63m61.07 0q-1.695 0-1.696 1.63 0 2.576-.087 5.9a229 229 0 0 0-.086 5.885q0 1.972-.191 5.933-.19 3.945-.19 5.917 0 1.663 1.696 1.663 1.522 0 1.696-1.63.138-2.494.138-3.782l.26-8.101q0-2.576.086-5.885.087-3.324.087-5.9 0-1.63-1.713-1.63m46.204.081q-.744 0-1.229.457-.467.455-.467 1.19 0 .733.07 1.727.086.995.086 1.728 0 2.445-.087 5.64-.067 3.179-.069 5.656 0 1.353-.208 4.059-.19 2.69-.19 4.042 0 2.217 1.748 2.217.744 0 1.211-.456.485-.456.485-1.19 0-2.395.19-4.923 2.112-1.352 3.115-2.102l3.063 3.928q1.817 2.25 2.717 3.896.519.945 1.471.945.71 0 1.246-.473.553-.473.553-1.124 0-1.027-2.647-4.434l-3.772-4.841q3.114-2.69 5.243-5.037.502-.537.501-1.092 0-.668-.553-1.173-.536-.506-1.211-.506-.658 0-1.23.555l-3.806 3.7a48 48 0 0 1-4.534 3.716q-.034-2.835.05-5.672l.121-5.249q0-.75-.086-1.76a22 22 0 0 1-.087-1.777q0-.735-.485-1.19-.466-.456-1.21-.456zm-53.784 1.32q-.968 0-1.575.832a6 6 0 0 0-1.194-.228q-.674-.081-1.523-.081-4.17 0-8.272 4.84-4.914 5.804-4.914 11.33 0 3.422 2.388 5.932 2.475 2.592 6.057 2.592 4.672 0 9.24-3.814.659-.555.659-1.288 0-.653-.502-1.173a1.64 1.64 0 0 0-1.246-.538q-.501 0-1.488.684-2.078 1.435-3.08 1.924-1.8.863-3.583.863-2.077 0-3.548-1.564-1.436-1.516-1.436-3.619 0-4.351 4.153-9.21 3.063-3.618 5.573-3.618 1.436 0 1.8.18.414.227.9 1.27.553 1.224 1.66 1.223.865 0 1.333-.635.38-.506.38-1.174 0-1.924-.276-3.244-.312-1.483-1.506-1.483m-62.973.408q-.83 0-1.436.554t-.606 1.337.606 1.337q.605.554 1.436.554.83 0 1.42-.554.605-.555.605-1.337t-.606-1.337a2 2 0 0 0-1.419-.554m-42.847.505q-3.564 0-6.905 2.266-3.495 2.395-3.495 5.298 0 2.46 2.457 3.78 1.92 1.027 4.655 1.126 3.08.082 5.174 1.108 2.475 1.19 2.475 3.244 0 2.494-2.942 3.895-2.302 1.093-4.984 1.093-2.804 0-4.274-.913-.692-.44-1.575-1.679-.64-.912-1.488-.913-.744 0-1.264.44-.501.424-.484 1.109.052 2.445 3.27 3.847 2.631 1.14 5.798 1.14 4.361 0 7.666-2.004 3.807-2.315 3.807-6.194 0-2.723-2.042-4.613-2.232-2.07-6.195-2.348-2.735-.18-3.686-.39-2.561-.555-2.561-1.908 0-1.792 1.938-3.048 1.886-1.223 4.586-1.255.951-.016 2.682.342 1.73.342 2.422.342 1.558 0 1.558-1.434 0-1.091-2.804-1.793-2.11-.537-3.789-.538m13.515 5.82q-1.765 0-1.765 3.7-.002.88.156 2.608.173 1.727.173 2.591 0 .978-.19 2.918t-.191 2.918q0 4.188 1.955 4.189a1.8 1.8 0 0 0 1.23-.456q.536-.458.536-1.125 0-.391-.173-1.272-.156-.88-.156-1.369 0-.913.19-2.82t.19-2.885q.606-.636.883-1.027l2.042-2.151q1.245-1.174 2.458-1.696.518.963.518 2.69 0 1.973.416 5.835.432 3.847.432 5.82 0 .717.468 1.173.484.474 1.228.473.744 0 1.211-.473.485-.456.485-1.173 0-1.68-.329-4.255l-.52-4.352a39 39 0 0 1-.085-3.064q.518-.571 2.18-1.516 1.747-1.027 2.388-1.027.692 0 1.28 1.467.415 1.075.589 2.2l.589 5.053q.31 3.26.622 5.053.243 1.418 1.662 1.418.743 0 1.263-.456.518-.456.467-1.108-.762-6.537-1.246-9.34-.502-3.995-.71-4.58-1.055-2.935-3.945-2.935-1.696 0-3.011.603a6 6 0 0 0-2.267 1.777q-1.02-2.542-3.738-2.542-1.23 0-2.976 1.418-1.748 1.401-2.648 3.146l-.034-1.712q0-.343.087-.994.087-.652.086-.962 0-.652-.57-1.206-.555-.555-1.23-.554zm132.972.765q-3.255 0-5.849 3.912-2.337 3.522-2.336 6.83 0 3.473 2.492 5.591 2.37 2.022 5.918 2.021 1.54 0 3.876-.977 2.665-1.11 2.665-2.299 0-.62-.467-1.092-.467-.489-1.108-.489-.225 0-.744.26l-2.007 1.012q-1.177.521-2.215.52-2.285 0-3.738-1.157-1.558-1.237-1.557-3.39 0-1.988 1.574-4.71 1.73-2.967 3.496-2.967 2.319 0 3.34.766l.71.57q.38.278.882.278.64 0 1.073-.473.432-.49.432-1.109 0-1.385-2.647-2.347-2.095-.75-3.79-.75m-79.69.294q-3.963 0-6.333 3.13-2.18 2.867-2.18 7.106 0 3.668 2.647 5.705 2.422 1.842 6.334 1.842 2.508 0 5.156-1.108 3.099-1.304 3.098-3.114 0-.57-.484-.994a1.52 1.52 0 0 0-1.074-.44q-.674 0-1.263.88-.588.865-2.63 1.402-1.61.424-2.803.424-1.92 0-3.375-.685a6.2 6.2 0 0 1-2.405-2.037l6.61-2.95q2.803-1.24 3.669-1.826 1.955-1.337 1.956-2.967 0-2.331-2.233-3.455-1.816-.913-4.69-.913zm61.208.13q-4.326 0-6.749 3.309-2.076 2.805-1.973 6.487.121 3.798 2.457 6.048 2.094 2.02 5.002 2.021 3.651 0 5.866-2.901 1.956-2.56 2.008-6.178.05-3.39-1.367-5.803-1.783-2.983-5.244-2.983m-85.729.212q-.744 0-1.229.456-.467.457-.467 1.19 0 1.533-.173 3.83-.173 2.282-.173 3.815 0 .978.05 2.934.069 1.94.07 2.918 0 .718.467 1.173.484.457 1.228.457.76 0 1.229-.457.467-.456.467-1.173 0-.978-.069-2.918-.05-1.956-.05-2.934 0-1.533.173-3.814.174-2.299.173-3.83 0-.735-.484-1.19-.468-.457-1.211-.457zm24.521 2.592q2.683 0 4.17 1.304-1.332 1.06-4.464 2.494l-5.312 2.38q.692-3.097 2.094-4.63 1.4-1.548 3.512-1.548m60.983.505q3.859.016 3.617 6.324-.087 2.332-1.558 3.7-1.298 1.24-3.097 1.24-1.54 0-2.682-1.093-1.368-1.32-1.368-3.684t1.125-4.205q1.419-2.298 3.963-2.282" style="fill:#f9f9f9;fill-opacity:1;stroke-width:.264583"/></svg>