<svg xmlns="http://www.w3.org/2000/svg" width="210mm" height="297mm" viewBox="0 0 210 297"><path d="M105-38.441A97.941 90.637 56.698 0 0 83.023 93.182a97.941 90.637 56.698 0 0 129.528 32.093A97.941 90.637 56.698 0 0 234.53-6.348 97.941 90.637 56.698 0 0 105-38.44m13.804 21.012a72.8 64.425 56.698 0 1 93.817 25.473 72.8 64.425 56.698 0 1-13.874 96.219A72.8 64.425 56.698 0 1 104.93 78.79a72.8 64.425 56.698 0 1 13.874-96.219m37.304 177.116a14.09 14.09 0 0 0-6.216 11.717v39.178a14.09 14.09 0 0 0 14.122 14.122 14.09 14.09 0 0 0 14.122-14.122v-39.178a14.09 14.09 0 0 0-14.122-14.122c-2.934 0-5.653.886-7.906 2.405" style="fill:#fff;stroke-width:.264583" transform="rotate(33.302)"/></svg>